# xmcd
#
# Track frame offsets: 
#        150
#        20670
#        29312
#        42217
#        54355
#        73767
#        92252
#        110205
#        119107
#        161955
#        180932
#        199412
#
# Disc length: 2725 seconds
#
# Revision: 0
# Processed by: cddbd v1.5PL3 Copyright (c) Steve Scherf et al.
# Submitted via: ExactAudioCopy v0.95a4
#
DISCID=a90aa30c
DTITLE=Top Jimmy - The Good Times Are Killing Me
DYEAR=1996
DGENRE=Blues
TTITLE0=intro
TTITLE1=Hollywood Boogie
TTITLE2=The Good Times Are Killing Me
TTITLE3=One More Time
TTITLE4=Slow Blue Something
TTITLE5=Hole In My Pocket
TTITLE6=Why You Break My Drink
TTITLE7=Cow Song
TTITLE8=Voodoo Sausage
TTITLE9=Come On Home
TTITLE10=She Ugly
TTITLE11=Slow Blue Instrumental
EXTD=
EXTT0=
EXTT1=
EXTT2=
EXTT3=
EXTT4=
EXTT5=
EXTT6=
EXTT7=
EXTT8=
EXTT9=
EXTT10=
EXTT11=
PLAYORDER=
